<svg xmlns="http://www.w3.org/2000/svg" width="24" height="24" fill="#fff" xmlns:v="https://vecta.io/nano"><g clip-path="url(#A)"><path d="M17.24 22.75H6.76c-2.8 0-4.58-1.67-4.74-4.46l-.52-8.25a4.44 4.44 0 0 1 1.21-3.36A4.52 4.52 0 0 1 6 5.25c.32 0 .63-.19.78-.49l.72-1.43c.59-1.17 2.07-2.08 3.36-2.08h2.29c1.29 0 2.76.91 3.35 2.07l.72 1.46c.15.28.45.47.78.47a4.52 4.52 0 0 1 3.29 1.43c.86.92 1.29 2.11 1.21 3.36l-.52 8.26c-.18 2.83-1.91 4.45-4.74 4.45zm-6.38-20c-.74 0-1.68.58-2.02 1.25l-.72 1.44C7.7 6.25 6.89 6.75 6 6.75a3.01 3.01 0 0 0-2.2.95A2.95 2.95 0 0 0 3 9.94l.52 8.26c.12 2.02 1.21 3.05 3.24 3.05h10.48c2.02 0 3.11-1.03 3.24-3.05L21 9.94a2.99 2.99 0 0 0-.8-2.24 3.01 3.01 0 0 0-2.2-.95c-.89 0-1.7-.5-2.12-1.29L15.15 4c-.33-.66-1.27-1.24-2.01-1.24h-2.28v-.01zm2.64 6h-3c-.41 0-.75-.34-.75-.75s.34-.75.75-.75h3c.41 0 .75.34.75.75s-.34.75-.75.75zm-1.5 10a4 4 0 1 1 0-8 4 4 0 1 1 0 8zm0-6.5a2.5 2.5 0 1 0 0 5 2.5 2.5 0 1 0 0-5z"/></g><defs><clipPath id="A"><path fill="#fff" d="M0 0h24v24H0z"/></clipPath></defs></svg>