<svg xmlns="http://www.w3.org/2000/svg" width="24" height="24" fill="#fff" xmlns:v="https://vecta.io/nano"><g clip-path="url(#A)"><path d="M15.94 23.35a.87.87 0 0 1-.86-.69l-.28-1.22c-.14-.6-.61-1.07-1.2-1.21l-1.23-.28a.87.87 0 0 1-.68-.85c0-.41.28-.77.69-.86l1.21-.28c.6-.14 1.07-.61 1.21-1.2l.28-1.23c.09-.4.44-.68.85-.68a.86.86 0 0 1 .85.69l.28 1.21c.14.6.61 1.07 1.2 1.21l1.23.28a.87.87 0 0 1 .68.85.88.88 0 0 1-.68.86l-1.22.28c-.6.14-1.07.61-1.21 1.2l-.29 1.23a.87.87 0 0 1-.85.68l.02.01zm-1.18-4.23c.49.28.9.69 1.17 1.18.28-.49.69-.9 1.18-1.17-.49-.28-.9-.69-1.17-1.18-.28.49-.69.9-1.18 1.17zm-4.1 3.03h-.11c-1.02-.14-2.01-.44-2.95-.89-.15-.07-.45-.11-.59-.08l-.22.05-2.48.6c-.68.17-1.32.02-1.74-.4s-.57-1.06-.4-1.75l.65-2.7c.03-.13 0-.42-.08-.58-.9-1.89-1.2-4.01-.86-6.13.7-4.24 4.15-7.69 8.39-8.39 3.35-.54 6.62.51 8.98 2.88s3.4 5.64 2.86 8.97a10.42 10.42 0 0 1-.93 2.91.75.75 0 0 1-1 .34.75.75 0 0 1-.34-1c.38-.78.65-1.62.79-2.49.47-2.85-.42-5.65-2.44-7.67s-4.82-2.92-7.68-2.46c-3.61.6-6.55 3.54-7.14 7.16-.29 1.81-.04 3.63.73 5.24.18.38.32 1.04.18 1.59l-.65 2.69c-.05.22-.01.32 0 .33s.11.06.33 0l2.48-.59.23-.06c.48-.11 1.13-.03 1.57.18a8.61 8.61 0 0 0 2.52.75.76.76 0 0 1 .64.85c-.05.37-.37.65-.74.65zm6.77-11.44c-.3 0-.59-.19-.7-.49-.5-1.35-1.56-2.42-2.91-2.94-.39-.15-.58-.58-.43-.97a.75.75 0 0 1 .97-.43c1.74.68 3.12 2.07 3.77 3.82a.75.75 0 0 1-.44.97c-.09.03-.17.04-.26.04z"/></g><defs><clipPath id="A"><path fill="#fff" d="M0 0h24v24H0z"/></clipPath></defs></svg>