<svg xmlns="http://www.w3.org/2000/svg" width="24" height="24" fill="none" xmlns:v="https://vecta.io/nano"><g clip-path="url(#A)" stroke="#fff" stroke-width="1.5" stroke-linejoin="round"><path d="M11 2H9C4 2 2 4 2 9v6c0 5 2 7 7 7h6c5 0 7-2 7-7v-2" stroke-linecap="round"/><g stroke-miterlimit="10"><path d="M16.04 3.019l-7.88 7.88c-.3.3-.6.89-.66 1.32l-.43 3.01c-.16 1.09.61 1.85 1.7 1.7l3.01-.43c.42-.06 1.01-.36 1.32-.66l7.88-7.88c1.36-1.36 2-2.94 0-4.94s-3.58-1.36-4.94 0z"/><path d="M14.91 4.15c.67 2.39 2.54 4.26 4.94 4.94" stroke-linecap="round"/></g></g><defs><clipPath id="A"><path fill="none" d="M0 0h24v24H0z"/></clipPath></defs></svg>