<svg width="24" height="24" viewBox="0 0 24 24" fill="none" xmlns="http://www.w3.org/2000/svg">
<path fill-rule="evenodd" clip-rule="evenodd" d="M12.9 6.7501C12.9 6.25304 12.4971 5.8501 12 5.8501C11.5029 5.8501 11.1 6.25304 11.1 6.7501V11.1001H6.75001C6.25295 11.1001 5.85001 11.503 5.85001 12.0001C5.85001 12.4972 6.25295 12.9001 6.75001 12.9001H11.1V17.2501C11.1 17.7472 11.5029 18.1501 12 18.1501C12.4971 18.1501 12.9 17.7472 12.9 17.2501V12.9001H17.25C17.7471 12.9001 18.15 12.4972 18.15 12.0001C18.15 11.503 17.7471 11.1001 17.25 11.1001H12.9V6.7501Z" fill="white"/>
</svg>
