<svg width="24" height="24" viewBox="0 0 24 24" fill="none" xmlns="http://www.w3.org/2000/svg">
<path fill-rule="evenodd" clip-rule="evenodd" d="M4.09998 6.2C4.09998 5.26112 4.86109 4.5 5.79998 4.5H18.8C19.7389 4.5 20.5 5.26112 20.5 6.2V7.2C20.5 7.88933 20.0897 8.48283 19.5 8.74964V18.2C19.5 19.1389 18.7389 19.9 17.8 19.9H6.80001C5.86112 19.9 5.10001 19.1389 5.10001 18.2V8.74967C4.51028 8.48287 4.09998 7.88935 4.09998 7.2V6.2ZM6.50001 8.9H18.1V18.2C18.1 18.3657 17.9657 18.5 17.8 18.5H6.80001C6.63432 18.5 6.50001 18.3657 6.50001 18.2V8.9ZM5.79998 5.9C5.63429 5.9 5.49998 6.03431 5.49998 6.2V7.2C5.49998 7.36569 5.63429 7.5 5.79998 7.5H18.8C18.9657 7.5 19.1 7.36569 19.1 7.2V6.2C19.1 6.03431 18.9657 5.9 18.8 5.9H5.79998ZM9.20002 10.5001C8.70297 10.5001 8.30002 10.903 8.30002 11.4001C8.30002 11.8972 8.70297 12.3001 9.20002 12.3001H15.4C15.8971 12.3001 16.3 11.8972 16.3 11.4001C16.3 10.903 15.8971 10.5001 15.4 10.5001H9.20002Z" fill="#767779"/>
</svg>
