<svg width="24" height="24" viewBox="0 0 24 24" fill="none" xmlns="http://www.w3.org/2000/svg">
<path fill-rule="evenodd" clip-rule="evenodd" d="M9.86992 5C9.63121 5 9.40038 5.08539 9.21913 5.24074L7.45833 6.75H5C3.89543 6.75 3 7.64543 3 8.75V17.25C3 18.3546 3.89543 19.25 5 19.25H19C20.1046 19.25 21 18.3546 21 17.25V8.75C21 7.64543 20.1046 6.75 19 6.75H16.5417L14.7809 5.24074C14.5996 5.08539 14.3688 5 14.1301 5H9.86992ZM12 17C14.2091 17 16 15.2091 16 13C16 10.7909 14.2091 9 12 9C9.79086 9 8 10.7909 8 13C8 15.2091 9.79086 17 12 17ZM12 15.75C13.5188 15.75 14.75 14.5188 14.75 13C14.75 11.4812 13.5188 10.25 12 10.25C10.4812 10.25 9.25 11.4812 9.25 13C9.25 14.5188 10.4812 15.75 12 15.75ZM17.5 11.25C18.0523 11.25 18.5 10.8023 18.5 10.25C18.5 9.69772 18.0523 9.25 17.5 9.25C16.9477 9.25 16.5 9.69772 16.5 10.25C16.5 10.8023 16.9477 11.25 17.5 11.25Z" fill="#0A0A0A"/>
</svg>
