<svg width="16" height="17" viewBox="0 0 16 17" fill="none" xmlns="http://www.w3.org/2000/svg">
    <g clip-path="url(#clip0_2017_617)">
        <path fill-rule="evenodd" clip-rule="evenodd"
            d="M13.6611 7.91913L12.6328 7.91913L10.2698 10.2821L10.2698 12.7645C10.2698 13.0372 10.1615 13.2987 9.96867 13.4915L9.72453 13.7357C9.42337 14.0368 8.93508 14.0368 8.63392 13.7357L6.45284 11.5546L5.69423 12.3132C4.7587 13.2487 3.61821 13.9536 2.36308 14.372C2.78146 13.1168 3.48632 11.9764 4.42184 11.0408L5.18046 10.2822L2.99907 8.10083C2.6979 7.79966 2.6979 7.31138 2.99907 7.01021L3.24321 6.76607C3.43604 6.57323 3.69758 6.4649 3.97029 6.4649L6.45275 6.4649L8.81571 4.10194L8.81571 3.07374C8.81571 2.80103 8.92405 2.53949 9.11688 2.34666L9.36102 2.10252C9.66219 1.80135 10.1505 1.80135 10.4516 2.10252L14.6323 6.28321C14.9335 6.58438 14.9335 7.07266 14.6323 7.37383L14.3882 7.61797C14.1954 7.8108 13.9338 7.91913 13.6611 7.91913Z"
            fill="#767779" />
    </g>
    <defs>
        <clipPath id="clip0_2017_617">
            <rect width="16" height="16" fill="white" transform="translate(0 0.5)" />
        </clipPath>
    </defs>
</svg>
