<svg width="20" height="20" viewBox="0 0 20 20" fill="none" xmlns="http://www.w3.org/2000/svg">
<path fill-rule="evenodd" clip-rule="evenodd" d="M12.7915 5.65154C13.0628 5.30278 13 4.80016 12.6512 4.52891C12.3024 4.25765 11.7998 4.32048 11.5286 4.66924L5.08485 12.954L2.72566 10.5947C2.41325 10.2822 1.90671 10.2822 1.59429 10.5946C1.28186 10.907 1.28184 11.4136 1.59425 11.726L4.59425 14.7262C4.7565 14.8884 4.98062 14.9732 5.20965 14.9589C5.43867 14.9447 5.65055 14.8328 5.79143 14.6516L12.7915 5.65154ZM17.4583 5.65162C17.7296 5.30286 17.6667 4.80024 17.318 4.52898C16.9692 4.25773 16.4666 4.32055 16.1954 4.66931L9.75161 12.9541L9.39217 12.5947C9.07973 12.2823 8.5732 12.2823 8.26079 12.5948C7.94839 12.9072 7.94841 13.4137 8.26085 13.7261L9.26109 14.7263C9.42335 14.8885 9.64746 14.9733 9.87648 14.959C10.1055 14.9448 10.3174 14.8328 10.4582 14.6517L17.4583 5.65162Z" fill="#007BFC"/>
</svg>
