<svg width="25" height="25" viewBox="0 0 25 25" fill="none" xmlns="http://www.w3.org/2000/svg">
    <g clip-path="url(#clip0_2095_10084)">
        <path
            d="M12.5002 1.45996C18.8237 1.46007 23.9503 6.58656 23.9503 12.9102C23.9502 19.2337 18.8237 24.3602 12.5002 24.3604C6.17656 24.3604 1.05006 19.2337 1.04996 12.9102C1.04996 6.5865 6.17649 1.45996 12.5002 1.45996ZM12.5002 2.86035C6.94969 2.86035 2.45035 7.35969 2.45035 12.9102C2.45045 18.4605 6.94976 22.96 12.5002 22.96C18.0505 22.9599 22.5499 18.4605 22.55 12.9102C22.55 7.35976 18.0505 2.86046 12.5002 2.86035ZM16.005 8.41504C16.2784 8.14167 16.7219 8.14167 16.9953 8.41504C17.2684 8.68843 17.2686 9.13199 16.9953 9.40527L13.4904 12.9102L16.9953 16.415C17.2684 16.6884 17.2686 17.132 16.9953 17.4053C16.722 17.6786 16.2784 17.6784 16.005 17.4053L12.5002 13.9004L8.99527 17.4053C8.72198 17.6786 8.27842 17.6784 8.00504 17.4053C7.73167 17.1319 7.73167 16.6884 8.00504 16.415L11.5099 12.9102L8.00504 9.40527C7.73167 9.13191 7.73167 8.68841 8.00504 8.41504C8.2784 8.14167 8.7219 8.14167 8.99527 8.41504L12.5002 11.9199L16.005 8.41504Z"
            fill="#0A0A0A" />
    </g>
    <defs>
        <clipPath id="clip0_2095_10084">
            <rect width="24" height="24" fill="white" transform="translate(0.5 0.909912)" />
        </clipPath>
    </defs>
</svg>
