<svg width="13" height="13" viewBox="0 0 13 13" fill="none" xmlns="http://www.w3.org/2000/svg">
    <g clip-path="url(#clip0_2030_917)">
        <path fill-rule="evenodd" clip-rule="evenodd"
            d="M6.5 0.799805C4.51178 0.799805 2.9 2.41158 2.9 4.3998V6.12911C2.35778 6.48686 2 7.1015 2 7.79971V10.7997C2 11.9043 2.89543 12.7997 4 12.7997H9C10.1046 12.7997 11 11.9043 11 10.7997V7.79971C11 7.1015 10.6422 6.48686 10.1 6.12911V4.3998C10.1 2.41158 8.48822 0.799805 6.5 0.799805ZM8.9 5.79971V4.3998C8.9 3.07432 7.82548 1.9998 6.5 1.9998C5.17452 1.9998 4.1 3.07432 4.1 4.3998V5.79971H8.9Z"
            fill="#767779" />
    </g>
    <defs>
        <clipPath id="clip0_2030_917">
            <rect width="12" height="12" fill="white" transform="translate(0.5 0.799805)" />
        </clipPath>
    </defs>
</svg>
