<svg width="24" height="24" viewBox="0 0 24 24" fill="none" xmlns="http://www.w3.org/2000/svg">
<path fill-rule="evenodd" clip-rule="evenodd" d="M8 12.0001C8 12.9114 7.26127 13.6501 6.35 13.6501C5.43873 13.6501 4.7 12.9114 4.7 12.0001C4.7 11.0888 5.43873 10.3501 6.35 10.3501C7.26127 10.3501 8 11.0888 8 12.0001ZM13.65 12.0001C13.65 12.9114 12.9112 13.6501 12 13.6501C11.0887 13.6501 10.35 12.9114 10.35 12.0001C10.35 11.0888 11.0887 10.3501 12 10.3501C12.9112 10.3501 13.65 11.0888 13.65 12.0001ZM17.65 13.6501C18.5613 13.6501 19.3 12.9114 19.3 12.0001C19.3 11.0888 18.5613 10.3501 17.65 10.3501C16.7387 10.3501 16 11.0888 16 12.0001C16 12.9114 16.7387 13.6501 17.65 13.6501Z" fill="#0A0A0A"/>
</svg>
