<svg width="33" height="32" viewBox="0 0 33 32" fill="none" xmlns="http://www.w3.org/2000/svg">
<g clip-path="url(#clip0_2010_1789)">
<path fill-rule="evenodd" clip-rule="evenodd" d="M5.12666 26.215L5.12341 26.2197L5.12321 26.2199C4.956 26.4546 4.93382 26.7629 5.06573 27.0191C5.1977 27.2753 5.46177 27.4363 5.74999 27.4363H5.75082H5.7517L5.75365 27.4363L5.75821 27.4363L5.77001 27.4361C5.77906 27.436 5.79047 27.4357 5.80417 27.4352C5.83157 27.4343 5.86815 27.4326 5.91334 27.4294C6.00371 27.423 6.12867 27.4108 6.28375 27.3875C6.59391 27.3409 7.02501 27.2498 7.54101 27.072C8.56884 26.7177 9.92288 26.0227 11.3209 24.6667C11.7006 24.6956 12.0854 24.7104 12.4744 24.7104C18.9153 24.7104 24.4685 20.5799 24.4685 15.1216C24.4685 9.66321 18.9153 5.53271 12.4744 5.53271C6.0335 5.53271 0.480316 9.66321 0.480316 15.1216C0.480316 18.2149 2.29624 20.9077 5.00611 22.6306C5.33489 22.8396 5.67735 23.0348 6.03209 23.2153C6.15866 23.2797 6.2214 23.3611 6.23185 23.5782C6.24459 23.843 6.15966 24.2111 5.9893 24.6369C5.82476 25.0481 5.60835 25.4454 5.42802 25.746C5.33884 25.8946 5.26071 26.0158 5.20561 26.0988C5.17811 26.1403 5.15648 26.172 5.14224 26.1926L5.13655 26.2009L5.12666 26.215ZM20.7794 24.3076C20.5692 24.3076 20.3599 24.3029 20.1518 24.2936C23.9689 22.4164 26.5834 19.083 26.5834 15.1318C26.5834 11.3907 24.2397 8.20354 20.7506 6.28177L20.7794 6.28174C26.8091 6.28174 32.036 10.1509 32.036 15.2947C32.036 18.2088 30.3253 20.7403 27.7826 22.3569C27.4961 22.539 26.8779 22.9184 26.5298 23.0955C26.457 23.1325 26.4254 23.1583 26.4217 23.3037C26.4164 23.5051 26.4914 23.8045 26.6518 24.1695C26.8053 24.5188 27.0051 24.8578 27.1723 25.1157C27.2548 25.2429 27.3268 25.3466 27.3775 25.4174C27.4027 25.4528 27.4225 25.4797 27.4355 25.4971L27.4495 25.5159L27.4521 25.5193L27.4523 25.5197C27.6342 25.7571 27.6656 26.0772 27.5333 26.3454C27.4009 26.6138 27.1276 26.7838 26.8284 26.7838C26.0243 26.7838 25.1404 26.3669 24.3953 25.9217C23.6152 25.4556 22.8401 24.8661 22.2179 24.3567C22.1701 24.3175 22.107 24.295 22.0405 24.2961C21.5991 24.3034 20.9615 24.3076 20.7794 24.3076Z" fill="#0A0A0A"/>
</g>
<defs>
<clipPath id="clip0_2010_1789">
<rect width="32" height="32" fill="white" transform="translate(0.25)"/>
</clipPath>
</defs>
</svg>
