<svg width="32" height="33" viewBox="0 0 32 33" fill="none" xmlns="http://www.w3.org/2000/svg">
<path fill-rule="evenodd" clip-rule="evenodd" d="M11.6996 8.8C11.6996 6.42518 13.6248 4.5 15.9996 4.5C18.3744 4.5 20.2996 6.42518 20.2996 8.8V16.3C20.2996 18.6748 18.3744 20.6 15.9996 20.6C13.6248 20.6 11.6996 18.6748 11.6996 16.3V8.8ZM15.9996 6.1C14.5084 6.1 13.2996 7.30883 13.2996 8.8V16.3C13.2996 17.7912 14.5084 19 15.9996 19C17.4908 19 18.6996 17.7912 18.6996 16.3V8.8C18.6996 7.30883 17.4908 6.1 15.9996 6.1ZM8.99962 15.5C9.44144 15.5 9.79962 15.8582 9.79962 16.3C9.79962 17.1142 9.95998 17.9204 10.2716 18.6726C10.5831 19.4249 11.0398 20.1083 11.6156 20.6841C12.1913 21.2598 12.8748 21.7165 13.627 22.0281C14.3792 22.3396 15.1854 22.5 15.9996 22.5C16.8138 22.5 17.62 22.3396 18.3723 22.0281C19.1245 21.7165 19.808 21.2598 20.3837 20.6841C20.9594 20.1083 21.4161 19.4249 21.7277 18.6726C22.0392 17.9204 22.1996 17.1142 22.1996 16.3C22.1996 15.8582 22.5578 15.5 22.9996 15.5C23.4414 15.5 23.7996 15.8582 23.7996 16.3C23.7996 17.3243 23.5979 18.3386 23.2059 19.2849C22.8139 20.2313 22.2393 21.0911 21.515 21.8154C20.7908 22.5397 19.9309 23.1143 18.9845 23.5063C18.2856 23.7958 17.5497 23.9815 16.8 24.0588V26.5C16.8 26.9418 16.4418 27.3 16 27.3C15.5581 27.3 15.2 26.9418 15.2 26.5V24.0589C14.45 23.9816 13.7138 23.7958 13.0147 23.5063C12.0683 23.1143 11.2085 22.5397 10.4842 21.8154C9.75989 21.0911 9.18534 20.2313 8.79335 19.2849C8.40137 18.3386 8.19962 17.3243 8.19962 16.3C8.19962 15.8582 8.55779 15.5 8.99962 15.5Z" fill="#0A0A0A"/>
</svg>
