<svg width="32" height="33" viewBox="0 0 32 33" fill="none" xmlns="http://www.w3.org/2000/svg">
    <path
        d="M15.9998 6.59961C16.4968 6.59961 16.9001 7.00303 16.9002 7.5V15.5996H24.9998C25.4968 15.5996 25.9001 16.003 25.9002 16.5C25.9002 16.9971 25.4969 17.4004 24.9998 17.4004H16.9002V25.5C16.9002 25.9971 16.4969 26.4004 15.9998 26.4004C15.5029 26.4003 15.0994 25.997 15.0994 25.5V17.4004H6.99982C6.50285 17.4003 6.09943 16.997 6.09943 16.5C6.09953 16.0031 6.50291 15.5997 6.99982 15.5996H15.0994V7.5C15.0995 7.0031 15.5029 6.59972 15.9998 6.59961Z"
        fill="#0A0A0A" />
</svg>
