<svg width="32" height="32" viewBox="0 0 32 32" fill="none" xmlns="http://www.w3.org/2000/svg">
<path fill-rule="evenodd" clip-rule="evenodd" d="M6.49995 7.7002C4.67741 7.7002 3.19995 9.17766 3.19995 11.0002V21.0002C3.19995 22.8227 4.67741 24.3002 6.49995 24.3002H19C20.8226 24.3002 22.3 22.8227 22.3 21.0002V19.0266L25.8181 22.0895C26.9828 23.1036 28.8 22.2763 28.8 20.7319L28.8 11.2685C28.8 9.72414 26.9829 8.89685 25.8181 9.91093L22.3 12.9738V11.0002C22.3 9.17766 20.8226 7.7002 19 7.7002H6.49995ZM22.3 15.0952V16.9052L26.8687 20.8828C26.9981 20.9954 27.2 20.9035 27.2 20.7319L27.2 11.2685C27.2 11.0969 26.9981 11.005 26.8687 11.1177L22.3 15.0952ZM4.79995 11.0002C4.79995 10.0613 5.56107 9.3002 6.49995 9.3002H19C19.9389 9.3002 20.7 10.0613 20.7 11.0002V21.0002C20.7 21.9391 19.9389 22.7002 19 22.7002H6.49995C5.56107 22.7002 4.79995 21.9391 4.79995 21.0002V11.0002Z" fill="#0A0A0A"/>
</svg>
